<svg width="20" height="20" viewBox="0 0 20 20" fill="none" xmlns="http://www.w3.org/2000/svg">
    <path d="M12.4823 11.64L10.8764 13.2242C10.0389 12.7193 9.26095 12.1217 8.55714 11.4428C7.87926 10.7378 7.28179 9.95968 6.77571 9.12278L8.35837 7.51687C8.45423 7.41953 8.51896 7.29587 8.54434 7.16164C8.56971 7.0274 8.55459 6.88865 8.50088 6.76304L6.85072 2.91666C6.78553 2.76499 6.66802 2.64179 6.5196 2.56951C6.37119 2.49723 6.20174 2.48068 6.04214 2.52287L3.01634 3.3232C2.86523 3.36237 2.7319 3.45167 2.63815 3.57648C2.54441 3.7013 2.4958 3.85423 2.50028 4.01027C2.69281 7.52945 4.15604 10.8592 6.6182 13.381C9.14046 15.8439 12.4711 17.3074 15.9911 17.4996C16.1473 17.5049 16.3006 17.4567 16.4257 17.363C16.5508 17.2693 16.6401 17.1357 16.6789 16.9843L17.4785 13.957C17.5209 13.7975 17.5046 13.6281 17.4324 13.4796C17.3602 13.3312 17.2371 13.2136 17.0855 13.1484L13.2384 11.499C13.1126 11.4445 12.9735 11.4288 12.8388 11.454C12.7041 11.4791 12.5799 11.5439 12.4823 11.64V11.64Z" stroke="#192734" stroke-miterlimit="10" stroke-linecap="square"/>
</svg>
