<svg width="24" height="24" viewBox="0 0 24 24" fill="none" xmlns="http://www.w3.org/2000/svg">
<path fill-rule="evenodd" clip-rule="evenodd" d="M15.6054 7.33015C15.9959 6.93963 16.6291 6.93963 17.0196 7.33015L18.4943 8.80483C18.8848 9.19535 18.8848 9.82852 18.4943 10.219L10.5347 18.1786L6.20142 19.623L7.64586 15.2897L15.6054 7.33015Z" stroke="#1F272E" stroke-linecap="round" stroke-linejoin="round"/>
<path d="M5.55407 12C5.8098 12 6.03745 11.838 6.12126 11.5964L6.71564 9.88281H9.84064L10.4316 11.5957C10.5151 11.8376 10.7429 12 10.9988 12C11.4143 12 11.704 11.5878 11.5633 11.1969L9.20955 4.65608C9.0679 4.26245 8.69452 4 8.27618 4C7.85785 4 7.48447 4.26245 7.34282 4.65608L4.9892 11.1964C4.84842 11.5876 5.13831 12 5.55407 12ZM7.0672 8.86719L8.24689 5.45312H8.30939L9.48907 8.86719H7.0672Z" fill="#1F272E"/>
</svg>
