<svg width="16" height="16" viewBox="0 0 16 16" fill="none" xmlns="http://www.w3.org/2000/svg">
    <path d="M11.4675 3.45802C13.4246 5.41507 13.4246 8.54635 11.4936 10.4773L7.97091 14L4.44822 10.4773C2.51726 8.54635 2.51726 5.41507 4.44822 3.48411L4.47431 3.45802C6.40527 1.52706 9.51046 1.50097 11.4675 3.45802ZM11.4675 3.45802C11.4414 3.43193 11.4414 3.43193 11.4675 3.45802Z" stroke="#687178" stroke-miterlimit="10"/>
    <path d="M7.97072 8.25894C8.69128 8.25894 9.27542 7.6748 9.27542 6.95424C9.27542 6.23367 8.69128 5.64954 7.97072 5.64954C7.25015 5.64954 6.66602 6.23367 6.66602 6.95424C6.66602 7.6748 7.25015 8.25894 7.97072 8.25894Z" stroke="#687178" stroke-miterlimit="10"/>
</svg>
