<svg width="18" height="18" viewBox="0 0 18 18" fill="none" xmlns="http://www.w3.org/2000/svg">
<path d="M7.18772 13.6976L7.28578 14.1879C7.38258 14.1686 7.47148 14.121 7.54128 14.0512L7.18772 13.6976ZM3.58148 14.4189L3.09119 14.3208C3.0584 14.4848 3.10971 14.6542 3.22793 14.7725C3.34614 14.8907 3.51561 14.942 3.67954 14.9092L3.58148 14.4189ZM4.30273 10.8127L3.94917 10.4591C3.87937 10.5289 3.8318 10.6178 3.81244 10.7146L4.30273 10.8127ZM15.2307 4.43066L14.8772 4.78422L15.2307 4.43066ZM15.2307 5.65466L15.5843 6.00822L15.5843 6.00822L15.2307 5.65466ZM13.5697 2.76967L13.9233 2.41611L13.5697 2.76967ZM12.3457 2.76967L11.9922 2.41611L12.3457 2.76967ZM13.2162 3.12322L14.8772 4.78422L15.5843 4.07711L13.9233 2.41611L13.2162 3.12322ZM14.8772 5.30111L6.83417 13.3441L7.54128 14.0512L15.5843 6.00822L14.8772 5.30111ZM7.08967 13.2074L3.48342 13.9286L3.67954 14.9092L7.28578 14.1879L7.08967 13.2074ZM4.07177 14.517L4.79302 10.9107L3.81244 10.7146L3.09119 14.3208L4.07177 14.517ZM4.65628 11.1662L12.6993 3.12322L11.9922 2.41611L3.94917 10.4591L4.65628 11.1662ZM14.8772 4.78422C15.0199 4.92695 15.0199 5.15837 14.8772 5.30111L15.5843 6.00822C16.1175 5.47496 16.1175 4.61037 15.5843 4.07711L14.8772 4.78422ZM13.9233 2.41611C13.39 1.88285 12.5254 1.88285 11.9922 2.41611L12.6993 3.12322C12.842 2.98048 13.0734 2.98048 13.2162 3.12322L13.9233 2.41611ZM10.8338 4.10636L13.8938 7.16636L14.6009 6.45926L11.5409 3.39926L10.8338 4.10636Z" fill="#2D95F0"/>
</svg>
