<svg width="20" height="20" viewBox="0 0 20 20" fill="none" xmlns="http://www.w3.org/2000/svg">
<path d="M10 4.6875V11.6667" stroke="#505A62" stroke-miterlimit="10" stroke-linecap="round"/>
<path d="M11.7702 2.91666C10.7918 2.91666 9.99935 3.70911 9.99935 4.6875C9.99935 3.70911 9.2069 2.91666 8.22852 2.91666H3.91602C3.36373 2.91666 2.91602 3.36438 2.91602 3.91666V13.3125C2.91602 14.4171 3.81145 15.3125 4.91602 15.3125H8.22852C9.2069 15.3125 9.99935 16.1049 9.99935 17.0833C9.99935 16.1049 10.7918 15.3125 11.7702 15.3125H15.0827C16.1873 15.3125 17.0827 14.4171 17.0827 13.3125V3.91666C17.0827 3.36438 16.635 2.91666 16.0827 2.91666H11.7702Z" stroke="#505A62" stroke-miterlimit="10" stroke-linecap="square"/>
</svg>
