<svg width="24" height="24" viewBox="0 0 24 24" fill="none" xmlns="http://www.w3.org/2000/svg">
<path fill-rule="evenodd" clip-rule="evenodd" d="M12 1.5C12.1903 1.5 12.3641 1.60804 12.4484 1.77869L15.4221 7.80323L22.0723 8.77526C22.2606 8.80278 22.4169 8.93478 22.4756 9.11578C22.5343 9.29679 22.4852 9.49541 22.3489 9.62818L17.5373 14.3147L18.6728 20.9355C18.705 21.1231 18.6279 21.3127 18.4739 21.4245C18.3199 21.5364 18.1157 21.5511 17.9473 21.4625L12 18.3349L6.05273 21.4625C5.88427 21.5511 5.68012 21.5364 5.52613 21.4245C5.37214 21.3127 5.29502 21.1231 5.3272 20.9355L6.46274 14.3147L1.65113 9.62818C1.51482 9.49541 1.46569 9.29679 1.52438 9.11578C1.58307 8.93478 1.73941 8.80278 1.92769 8.77526L8.57787 7.80323L11.5516 1.77869C11.6359 1.60804 11.8097 1.5 12 1.5Z" fill="#192734"/>
</svg>
