<svg id="icon-youtube" width="18" height="18" viewBox="0 0 18 18" fill="none" xmlns="http://www.w3.org/2000/svg">
    <g clip-path="url(#clip0_779_38008)">
    <path fill-rule="evenodd" clip-rule="evenodd" d="M3.125 13.625H14.875C15.4273 13.625 15.875 13.1773 15.875 12.625V3.125C15.875 2.57272 15.4273 2.125 14.875 2.125H3.125C2.57272 2.125 2.125 2.57272 2.125 3.125V12.625C2.125 13.1773 2.57272 13.625 3.125 13.625ZM14.875 14.625C15.9796 14.625 16.875 13.7296 16.875 12.625V3.125C16.875 2.02043 15.9796 1.125 14.875 1.125H3.125C2.02043 1.125 1.125 2.02043 1.125 3.125V12.625C1.125 13.7296 2.02043 14.625 3.125 14.625H14.875ZM6.74988 5.35507C6.74988 4.74831 7.43289 4.39269 7.92997 4.74065L11.619 7.32298C12.0456 7.62156 12.0456 8.25325 11.619 8.55183L7.92998 11.1342C7.43289 11.4821 6.74988 11.1265 6.74988 10.5197V5.35507ZM7.74988 5.83524V10.0396L10.753 7.93741L7.74988 5.83524ZM5.625 15.25C5.34886 15.25 5.125 15.4739 5.125 15.75C5.125 16.0261 5.34886 16.25 5.625 16.25H12.375C12.6511 16.25 12.875 16.0261 12.875 15.75C12.875 15.4739 12.6511 15.25 12.375 15.25H5.625Z" fill="#171717"/>
    </g>
    <defs>
    <clipPath id="clip0_779_38008">
    <rect width="18" height="18" fill="white"/>
    </clipPath>
    </defs>
</svg>