<svg width="44" height="44" viewBox="0 0 44 44" fill="none" xmlns="http://www.w3.org/2000/svg">
<path d="M12.5714 44L31.4286 44C38.3716 44 44 38.3716 44 31.4286L44 12.5714C44 5.62842 38.3716 0 31.4286 0L12.5714 0C5.62842 0 0 5.62842 0 12.5714L0 31.4286C0 38.3716 5.62842 44 12.5714 44Z" fill="#0466DC"/>
<path d="M9.42859 12.5715V14.8972L12.5714 17.4587L18.5743 22.3458C19.5329 23.1315 20.7586 23.5715 22 23.5715C23.2414 23.5715 24.4672 23.1315 25.4257 22.3458L31.4286 17.443V28.2701H12.5714V21.5287L9.42859 18.9672V27.4844C9.42859 29.653 11.1886 31.413 13.3572 31.413H30.6429C32.8115 31.413 34.5715 29.653 34.5715 27.4844V12.5715H9.42859ZM23.4457 19.9101C22.6286 20.5701 21.3714 20.5701 20.57 19.9101L15.4157 15.7144H28.6L23.4457 19.9101Z" fill="white"/>
</svg>
