<svg width="24" height="24" viewBox="0 0 24 24" fill="none" xmlns="http://www.w3.org/2000/svg">
<path fill-rule="evenodd" clip-rule="evenodd" d="M15.8947 2.47619C15.8947 2.2132 15.6885 2 15.4342 2C15.1798 2 14.9737 2.2132 14.9737 2.47619V3.90476H8.52631V2.47619C8.52631 2.2132 8.32013 2 8.06579 2C7.81145 2 7.60526 2.2132 7.60526 2.47619V3.90476H5.30263C4.03092 3.90476 3 4.97074 3 6.28571V10.0952V19.619C3 20.934 4.03092 22 5.30263 22H18.1974C19.4691 22 20.5 20.934 20.5 19.619V10.0952V6.28571C20.5 4.97074 19.4691 3.90476 18.1974 3.90476H15.8947V2.47619ZM19.579 9.61905V6.28571C19.579 5.49673 18.9604 4.85714 18.1974 4.85714H15.8947V6.28572C15.8947 6.54871 15.6885 6.76191 15.4342 6.76191C15.1798 6.76191 14.9737 6.54871 14.9737 6.28572V4.85714H8.52631V6.28572C8.52631 6.54871 8.32013 6.76191 8.06579 6.76191C7.81145 6.76191 7.60526 6.54871 7.60526 6.28572V4.85714H5.30263C4.53961 4.85714 3.92105 5.49673 3.92105 6.28571V9.61905H19.579ZM3.92105 10.5714H19.579V19.619C19.579 20.408 18.9604 21.0476 18.1974 21.0476H5.30263C4.53961 21.0476 3.92105 20.408 3.92105 19.619V10.5714Z" fill="#4C5A67"/>
</svg>
