<svg width="24" height="24" viewBox="0 0 24 24" fill="none" xmlns="http://www.w3.org/2000/svg">
<path fill-rule="evenodd" clip-rule="evenodd" d="M22 12C22 17.5228 17.5228 22 12 22C6.47715 22 2 17.5228 2 12C2 6.47715 6.47715 2 12 2C17.5228 2 22 6.47715 22 12ZM16.8734 10.1402C17.264 9.74969 17.264 9.11652 16.8734 8.726C16.4829 8.33547 15.8498 8.33547 15.4592 8.726L14.6259 9.55933L12.9592 11.226L10.333 13.8522L9.37345 12.8927L8.54011 12.0593C8.14959 11.6688 7.51643 11.6688 7.1259 12.0593C6.73538 12.4499 6.73538 13.083 7.1259 13.4735L7.95923 14.3069L9.6259 15.9735C9.81344 16.1611 10.0678 16.2664 10.333 16.2664C10.5982 16.2664 10.8526 16.1611 11.0401 15.9735L14.3734 12.6402L16.0401 10.9735L16.8734 10.1402Z" fill="#68D391"/>
</svg>
