<svg width="24" height="24" viewBox="0 0 24 24" fill="none" xmlns="http://www.w3.org/2000/svg">
<path fill-rule="evenodd" clip-rule="evenodd" d="M3 11.9999C3 7.02937 7.02937 3 11.9999 3C16.9703 3 20.9997 7.02937 20.9997 11.9999C20.9997 16.9703 16.9703 20.9997 11.9999 20.9997C7.02937 20.9997 3 16.9703 3 11.9999ZM11.9999 2C6.47709 2 2 6.47709 2 11.9999C2 17.5226 6.47709 21.9997 11.9999 21.9997C17.5226 21.9997 21.9997 17.5226 21.9997 11.9999C21.9997 6.47709 17.5226 2 11.9999 2ZM12.5002 6.30027C12.5002 6.02413 12.2763 5.80027 12.0002 5.80027C11.724 5.80027 11.5002 6.02413 11.5002 6.30027V12.0002C11.5002 12.1896 11.6072 12.3627 11.7766 12.4474L15.5765 14.3474C15.8235 14.4709 16.1238 14.3708 16.2473 14.1238C16.3708 13.8768 16.2707 13.5764 16.0237 13.4529L12.5002 11.6912V6.30027Z" fill="#4C5A67"/>
</svg>
