<svg width="24" height="24" viewBox="0 0 24 24" fill="none" xmlns="http://www.w3.org/2000/svg">
<path fill-rule="evenodd" clip-rule="evenodd" d="M11.7114 3.0002H11.6325C10.4336 2.98895 9.27915 3.45397 8.42278 4.29322C7.5658 5.13306 7.07747 6.27888 7.06517 7.47871L7.06514 7.47871V7.48384V8.17399H5C3.89543 8.17399 3 9.06943 3 10.174V18.9996C3 20.1041 3.89543 20.9996 5 20.9996H18.2602C19.3647 20.9996 20.2602 20.1041 20.2602 18.9996V10.174C20.2602 9.06942 19.3647 8.17399 18.2602 8.17399H16.195V7.56755C16.2063 6.36863 15.7412 5.21421 14.902 4.35784C14.0622 3.50086 12.9163 3.01253 11.7165 3.00023V3.0002H11.7114ZM15.195 8.17399V7.56514V7.56016H15.195C15.2043 6.62548 14.842 5.72537 14.1878 5.05777C13.5341 4.39076 12.6425 4.01043 11.7087 4.0002H11.6301H11.6251V4.00017C10.6904 3.99087 9.79031 4.35318 9.12271 5.00743C8.4557 5.6611 8.07537 6.55271 8.06514 7.48649V8.17399H15.195ZM5 9.17399C4.44772 9.17399 4 9.62171 4 10.174V18.9996C4 19.5518 4.44772 19.9996 5 19.9996H18.2602C18.8124 19.9996 19.2602 19.5518 19.2602 18.9996V10.174C19.2602 9.62171 18.8124 9.17399 18.2602 9.17399H5ZM11.6303 15.804C12.3026 15.804 12.8476 15.259 12.8476 14.5867C12.8476 13.9145 12.3026 13.3694 11.6303 13.3694C10.958 13.3694 10.413 13.9145 10.413 14.5867C10.413 15.259 10.958 15.804 11.6303 15.804ZM13.8476 14.5867C13.8476 15.8113 12.8549 16.804 11.6303 16.804C10.4057 16.804 9.413 15.8113 9.413 14.5867C9.413 13.3622 10.4057 12.3694 11.6303 12.3694C12.8549 12.3694 13.8476 13.3622 13.8476 14.5867Z" fill="#4C5A67"/>
</svg>
