<svg width="20" height="20" viewBox="0 0 20 20" fill="none" xmlns="http://www.w3.org/2000/svg">
<path d="M6.00001 3.00001H12L15.5 3C16.6046 3 17.5 3.89543 17.5 5V9.78889V12.2556C17.5 13.3601 16.6046 14.2556 15.5 14.2556H14.5C14.2239 14.2556 14 14.4794 14 14.7556V16.4507C14 16.8715 13.5119 17.1041 13.185 16.839L10.2754 14.4789C10.0972 14.3344 9.87483 14.2556 9.64544 14.2556H4.49997C3.39539 14.2556 2.49995 13.3601 2.49997 12.2555L2.50001 9.78889V5.00001C2.50001 3.89544 3.39544 3.00001 4.50001 3.00001L6.00001 3.00001Z" stroke="#1F272E" stroke-miterlimit="10" stroke-linecap="square"/>
<path d="M6 6.5H13" stroke="#1F272E" stroke-miterlimit="10" stroke-linecap="round"/>
<path d="M6 9H10" stroke="#1F272E" stroke-miterlimit="10" stroke-linecap="round"/>
</svg>
