<svg width="20" height="20" viewBox="0 0 20 20" fill="none" xmlns="http://www.w3.org/2000/svg">
<path fill-rule="evenodd" clip-rule="evenodd" d="M10 20C15.5228 20 20 15.5228 20 10C20 4.47715 15.5228 0 10 0C4.47715 0 0 4.47715 0 10C0 15.5228 4.47715 20 10 20ZM6.0429 6.04289C6.43342 5.65237 7.06659 5.65237 7.45711 6.04289L10.0011 8.58692L12.5451 6.04294C12.9356 5.65242 13.5688 5.65242 13.9593 6.04294C14.3499 6.43347 14.3499 7.06663 13.9593 7.45716L11.4154 10.0011L13.9593 12.5451C14.3499 12.9356 14.3499 13.5688 13.9593 13.9593C13.5688 14.3499 12.9357 14.3499 12.5451 13.9593L10.0011 11.4154L7.45711 13.9594C7.06659 14.3499 6.43342 14.3499 6.0429 13.9594C5.65237 13.5689 5.65237 12.9357 6.0429 12.5452L8.58693 10.0011L6.0429 7.45711C5.65237 7.06658 5.65237 6.43342 6.0429 6.04289Z" fill="#F56B6B"/>
</svg>
