<svg width="20" height="20" viewBox="0 0 20 20" fill="none" xmlns="http://www.w3.org/2000/svg">
    <path d="M2.5 7.65137V15.0756C2.5 15.4373 2.64367 15.7841 2.8994 16.0398C3.15513 16.2956 3.50198 16.4392 3.86364 16.4392H16.1364C16.498 16.4392 16.8449 16.2956 17.1006 16.0398C17.3563 15.7841 17.5 15.4373 17.5 15.0756V7.65137" stroke="#192734" stroke-miterlimit="10" stroke-linecap="square"/>
    <path d="M17.5 7.5756V5.53014C17.5 5.16848 17.3563 4.82164 17.1006 4.5659C16.8449 4.31017 16.498 4.1665 16.1364 4.1665H3.86364C3.50198 4.1665 3.15513 4.31017 2.8994 4.5659C2.64367 4.82164 2.5 5.16848 2.5 5.53014V7.5756L10 10.8332L17.5 7.5756Z" stroke="#192734" stroke-miterlimit="10" stroke-linecap="square"/>
</svg>
