<svg width="16" height="16" viewBox="0 0 16 16" fill="none" xmlns="http://www.w3.org/2000/svg">
<path fill-rule="evenodd" clip-rule="evenodd" d="M8.5005 4.3335C8.5005 4.05735 8.27665 3.8335 8.0005 3.8335C7.72436 3.8335 7.5005 4.05735 7.5005 4.3335V7.50062H4.33337C4.05723 7.50062 3.83337 7.72447 3.83337 8.00062C3.83337 8.27676 4.05723 8.50062 4.33337 8.50062H7.5005V11.6677C7.5005 11.9439 7.72436 12.1677 8.0005 12.1677C8.27665 12.1677 8.5005 11.9439 8.5005 11.6677V8.50062H11.6676C11.9438 8.50062 12.1676 8.27676 12.1676 8.00062C12.1676 7.72447 11.9438 7.50062 11.6676 7.50062H8.5005V4.3335Z" fill="#4C5A67"/>
</svg>
