<svg id="frappe-symbols" aria-hidden="true" style="position: absolute; width: 0; height: 0; overflow: hidden;" class="d-block" xmlns="http://www.w3.org/2000/svg">
    <svg id="icon-video" viewBox="0 0 18 18" fill="none" xmlns="http://www.w3.org/2000/svg">
        <path d="M6.91624 5.11694L6.91622 5.11695C6.47722 5.30953 6.16502 5.71991 6.11766 6.20522L6.11496 6.2329V6.26072V11.7393V11.7671L6.11766 11.7949C6.16503 12.2801 6.47727 12.6904 6.91613 12.883L6.91632 12.8831C7.35161 13.0739 7.85949 13.0294 8.25381 12.7616L12.3871 10.0312C12.7443 9.81338 12.9721 9.42718 12.9721 9C12.9721 8.57282 12.7443 8.18662 12.3871 7.96878L8.25382 5.23837C7.85957 4.97063 7.35166 4.92595 6.91624 5.11694ZM1 9C1 4.58171 4.58171 1 9 1C11.1217 1 13.1566 1.84286 14.6568 3.34314C16.1571 4.84344 17 6.87827 17 9C17 13.4183 13.4183 17 9 17C4.58171 17 1 13.4183 1 9Z" stroke="black"/>
    </svg>
    <svg id="icon-video-blue" viewBox="0 0 18 18" fill="none" xmlns="http://www.w3.org/2000/svg">
        <path fill-rule="evenodd" clip-rule="evenodd" d="M1 9C1 4.58172 4.58172 1 9 1C11.1217 1 13.1566 1.84286 14.6569 3.34315C16.1571 4.84343 17 6.87827 17 9C17 13.4182 13.4182 17 9 17C4.58172 17 1 13.4182 1 9ZM8.00636 12.0679L11.8766 9.51133C12.0614 9.40191 12.174 9.2084 12.174 9C12.174 8.79161 12.0614 8.59809 11.8766 8.48867L8.00636 5.932C7.79102 5.78453 7.51 5.75869 7.2694 5.86422C7.0288 5.96977 6.86529 6.1906 6.84063 6.44334V11.5567C6.86529 11.8094 7.0288 12.0302 7.2694 12.1358C7.51 12.2413 7.79102 12.2155 8.00636 12.0679Z" fill="#2D95F0"/>
    </svg>
    <svg width="16" height="16" viewBox="0 0 16 16" id="icon-youtube" fill="none" xmlns="http://www.w3.org/2000/svg">
        <g clip-path="url(#clip0_3613_984)">
        <mask id="mask0_3613_984" style="mask-type:luminance" maskUnits="userSpaceOnUse" x="0" y="0" width="16" height="16">
        <path d="M16 0H0V16H16V0Z" fill="white"/>
        </mask>
        <g mask="url(#mask0_3613_984)">
        <path fill-rule="evenodd" clip-rule="evenodd" d="M2.77778 12.1111H13.2222C13.7132 12.1111 14.1111 11.7132 14.1111 11.2222V2.77778C14.1111 2.28686 13.7132 1.88889 13.2222 1.88889H2.77778C2.28686 1.88889 1.88889 2.28686 1.88889 2.77778V11.2222C1.88889 11.7132 2.28686 12.1111 2.77778 12.1111ZM13.2222 13C14.2041 13 15 12.2041 15 11.2222V2.77778C15 1.79594 14.2041 1 13.2222 1H2.77778C1.79594 1 1 1.79594 1 2.77778V11.2222C1 12.2041 1.79594 13 2.77778 13H13.2222ZM5.99989 4.76006C5.99989 4.22072 6.60701 3.90461 7.04886 4.21391L10.328 6.50932C10.7072 6.77472 10.7072 7.33622 10.328 7.60163L7.04887 9.89707C6.60701 10.2063 5.99989 9.89022 5.99989 9.35084V4.76006ZM6.88878 5.18688V8.92409L9.55822 7.05548L6.88878 5.18688ZM5 13.5556C4.75454 13.5556 4.55556 13.7546 4.55556 14C4.55556 14.2454 4.75454 14.4444 5 14.4444H11C11.2454 14.4444 11.4444 14.2454 11.4444 14C11.4444 13.7546 11.2454 13.5556 11 13.5556H5Z" fill="#525252"/>
        </g>
        </g>
        <defs>
        <clipPath id="clip0_3613_984">
        <rect width="16" height="16" fill="white"/>
        </clipPath>
        </defs>
    </svg>

    <svg width="16" height="16" id="icon-quiz" viewBox="0 0 16 16" fill="none" xmlns="http://www.w3.org/2000/svg">
        <g clip-path="url(#clip0_3613_978)">
        <mask id="mask0_3613_978" style="mask-type:luminance" maskUnits="userSpaceOnUse" x="0" y="0" width="16" height="16">
        <path d="M16 0H0V16H16V0Z" fill="white"/>
        </mask>
        <g mask="url(#mask0_3613_978)">
        <path fill-rule="evenodd" clip-rule="evenodd" d="M14.1111 8C14.1111 11.3751 11.3751 14.1111 8 14.1111C4.62492 14.1111 1.88889 11.3751 1.88889 8C1.88889 4.62492 4.62492 1.88889 8 1.88889C11.3751 1.88889 14.1111 4.62492 14.1111 8ZM15 8C15 11.866 11.866 15 8 15C4.13401 15 1 11.866 1 8C1 4.13401 4.13401 1 8 1C11.866 1 15 4.13401 15 8ZM7.37988 9.72462V9.79298H8.39062V9.72462C8.39062 9.4512 8.41992 9.23307 8.47852 9.07031C8.53711 8.90427 8.62826 8.76269 8.75196 8.64551C8.87891 8.52832 9.04329 8.4095 9.24516 8.28907C9.56089 8.09375 9.80987 7.85775 9.99218 7.58106C10.1745 7.30111 10.2656 6.96093 10.2656 6.56055C10.2656 6.17644 10.1745 5.83952 9.99218 5.5498C9.81316 5.26009 9.56089 5.03386 9.23538 4.87109C8.90987 4.70834 8.52734 4.62695 8.08789 4.62695C7.69401 4.62695 7.33268 4.70345 7.0039 4.85644C6.67513 5.00619 6.41146 5.22916 6.21289 5.52539C6.01432 5.81836 5.90852 6.17644 5.89551 6.59961H6.96972C6.986 6.34896 7.04948 6.14551 7.16016 5.98926C7.27084 5.82975 7.40756 5.71257 7.57031 5.6377C7.73633 5.56283 7.90885 5.52539 8.08789 5.52539C8.28972 5.52539 8.47364 5.56771 8.63964 5.65235C8.80892 5.73698 8.94071 5.8558 9.0352 6.00879C9.1328 6.16179 9.1816 6.34244 9.1816 6.55078C9.1816 6.81771 9.11004 7.0472 8.96676 7.23926C8.82356 7.42806 8.64453 7.58594 8.42969 7.71289C8.21159 7.84961 8.02278 7.98958 7.86328 8.13281C7.70703 8.27278 7.58659 8.46322 7.50196 8.7041C7.42057 8.94169 7.37988 9.28187 7.37988 9.72462ZM7.37988 11.8682C7.51986 12.0016 7.69076 12.0684 7.89258 12.0684C8.09765 12.0684 8.26855 12.0016 8.40527 11.8682C8.54524 11.7315 8.61524 11.5638 8.61524 11.3652C8.61524 11.1634 8.54524 10.9957 8.40527 10.8623C8.26855 10.7256 8.09765 10.6572 7.89258 10.6572C7.69076 10.6572 7.51986 10.7256 7.37988 10.8623C7.24316 10.9957 7.17481 11.1634 7.17481 11.3652C7.17481 11.5638 7.24316 11.7315 7.37988 11.8682Z" fill="#525252"/>
        </g>
        </g>
        <defs>
        <clipPath id="clip0_3613_978">
        <rect width="16" height="16" fill="white"/>
        </clipPath>
        </defs>
    </svg>


    <svg id="icon-quiz-blue" viewBox="0 0 1024 1024" fill="none" xmlns="http://www.w3.org/2000/svg">
        <g clip-path="url(#clip0_1511_749)">
        <path d="M512 0C229.232 0 0 229.232 0 512C0 794.784 229.232 1024 512 1024C794.784 1024 1024.02 794.784 1024.02 512C1024.02 229.232 794.785 0 512 0ZM512 961.008C264.976 961.008 64 759.024 64 511.998C64 264.974 264.976 63.998 512 63.998C759.024 63.998 960.017 264.975 960.017 511.998C960.017 759.021 759.025 961.009 512 961.009V961.008ZM464.944 800.479H545.456V719.231H464.944V800.479ZM511.056 223.535C464.176 223.535 425.553 236.175 395.217 261.424C364.881 286.687 350.129 337.279 350.881 379.199L352.065 381.535H425.505C425.505 356.527 433.841 320.591 450.513 307.695C467.169 294.815 487.361 288.367 511.073 288.367C538.401 288.367 559.409 295.791 574.146 310.638C588.866 325.486 596.209 346.718 596.209 374.302C596.209 397.486 590.769 417.278 579.841 433.678C568.881 450.078 550.513 473.519 524.753 504C498.177 527.967 481.761 547.231 475.521 561.807C469.265 576.399 466.017 602.575 465.777 640.319H542.737C542.737 616.639 544.24 599.183 547.233 587.983C550.208 576.799 558.737 564.16 572.801 550.095C603.025 520.943 627.297 492.431 645.681 464.544C664.017 436.687 673.201 405.951 673.201 372.351C673.201 325.471 659.025 288.943 630.624 262.783C602.208 236.607 562.352 223.535 511.056 223.535V223.535Z" fill="#2D95F0" stroke="#2D95F0"/>
        </g>
        <defs>
        <clipPath id="clip0_1511_749">
        <rect width="1024" height="1024" fill="white"/>
        </clipPath>
        </defs>
    </svg>
    <svg id="icon-list-blue" viewBox="0 0 16 16" fill="none" xmlns="http://www.w3.org/2000/svg">
        <path fill-rule="evenodd" clip-rule="evenodd" d="M2.66699 3.25C2.46808 3.25 2.27731 3.32902 2.13666 3.46967C1.99601 3.61032 1.91699 3.80109 1.91699 4C1.91699 4.19891 1.99601 4.38968 2.13666 4.53033C2.27731 4.67098 2.46808 4.75 2.66699 4.75H2.67399C2.8729 4.75 3.06367 4.67098 3.20432 4.53033C3.34497 4.38968 3.42399 4.19891 3.42399 4C3.42399 3.80109 3.34497 3.61032 3.20432 3.46967C3.06367 3.32902 2.8729 3.25 2.67399 3.25H2.66699ZM5.33299 3.5C5.20038 3.5 5.07321 3.55268 4.97944 3.64645C4.88567 3.74021 4.83299 3.86739 4.83299 4C4.83299 4.13261 4.88567 4.25979 4.97944 4.35355C5.07321 4.44732 5.20038 4.5 5.33299 4.5H14C14.1326 4.5 14.2598 4.44732 14.3535 4.35355C14.4473 4.25979 14.5 4.13261 14.5 4C14.5 3.86739 14.4473 3.74021 14.3535 3.64645C14.2598 3.55268 14.1326 3.5 14 3.5H5.33299ZM5.33299 7.5C5.20038 7.5 5.07321 7.55268 4.97944 7.64645C4.88567 7.74021 4.83299 7.86739 4.83299 8C4.83299 8.13261 4.88567 8.25979 4.97944 8.35355C5.07321 8.44732 5.20038 8.5 5.33299 8.5H14C14.1326 8.5 14.2598 8.44732 14.3535 8.35355C14.4473 8.25979 14.5 8.13261 14.5 8C14.5 7.86739 14.4473 7.74021 14.3535 7.64645C14.2598 7.55268 14.1326 7.5 14 7.5H5.33299ZM4.83299 12C4.83299 11.8674 4.88567 11.7402 4.97944 11.6464C5.07321 11.5527 5.20038 11.5 5.33299 11.5H14C14.1326 11.5 14.2598 11.5527 14.3535 11.6464C14.4473 11.7402 14.5 11.8674 14.5 12C14.5 12.1326 14.4473 12.2598 14.3535 12.3536C14.2598 12.4473 14.1326 12.5 14 12.5H5.33299C5.20038 12.5 5.07321 12.4473 4.97944 12.3536C4.88567 12.2598 4.83299 12.1326 4.83299 12ZM1.91699 8C1.91699 7.80109 1.99601 7.61032 2.13666 7.46967C2.27731 7.32902 2.46808 7.25 2.66699 7.25H2.67399C2.8729 7.25 3.06367 7.32902 3.20432 7.46967C3.34497 7.61032 3.42399 7.80109 3.42399 8C3.42399 8.19891 3.34497 8.38968 3.20432 8.53033C3.06367 8.67098 2.8729 8.75 2.67399 8.75H2.66699C2.46808 8.75 2.27731 8.67098 2.13666 8.53033C1.99601 8.38968 1.91699 8.19891 1.91699 8V8ZM2.66699 11.25C2.46808 11.25 2.27731 11.329 2.13666 11.4697C1.99601 11.6103 1.91699 11.8011 1.91699 12C1.91699 12.1989 1.99601 12.3897 2.13666 12.5303C2.27731 12.671 2.46808 12.75 2.66699 12.75H2.67399C2.8729 12.75 3.06367 12.671 3.20432 12.5303C3.34497 12.3897 3.42399 12.1989 3.42399 12C3.42399 11.8011 3.34497 11.6103 3.20432 11.4697C3.06367 11.329 2.8729 11.25 2.67399 11.25H2.66699Z" fill="#2D95F0"/>
    </svg>
    <svg id="icon-lock-blue" viewBox="0 0 16 16" fill="none" xmlns="http://www.w3.org/2000/svg">
        <path fill-rule="evenodd" clip-rule="evenodd" d="M8.077 1.45H8.022C7.13244 1.44174 6.27599 1.78701 5.64088 2.40993C5.00577 3.03285 4.64397 3.88244 4.635 4.772V5.122H3.75C3.21957 5.122 2.71086 5.33271 2.33579 5.70779C1.96071 6.08286 1.75 6.59157 1.75 7.122V12.513C1.75 13.0434 1.96071 13.5521 2.33579 13.9272C2.71086 14.3023 3.21957 14.513 3.75 14.513H12.289C12.8194 14.513 13.3281 14.3023 13.7032 13.9272C14.0783 13.5521 14.289 13.0434 14.289 12.513V7.122C14.289 6.59157 14.0783 6.08286 13.7032 5.70779C13.3281 5.33271 12.8194 5.122 12.289 5.122H11.404V4.837C11.4123 3.94744 11.067 3.09099 10.4441 2.45588C9.82115 1.82077 8.97156 1.45898 8.082 1.45H8.077ZM10.404 5.122V4.83C10.4104 4.20548 10.1686 3.60398 9.73166 3.15769C9.29475 2.71141 8.69851 2.45686 8.074 2.45H8.014C7.38948 2.4436 6.78798 2.68543 6.34169 3.12234C5.89541 3.55925 5.64086 4.15549 5.634 4.78V5.122H10.404ZM3.75 6.122C3.48478 6.122 3.23043 6.22736 3.04289 6.41489C2.85536 6.60243 2.75 6.85678 2.75 7.122V12.513C2.75 12.7782 2.85536 13.0326 3.04289 13.2201C3.23043 13.4076 3.48478 13.513 3.75 13.513H12.289C12.5542 13.513 12.8086 13.4076 12.9961 13.2201C13.1836 13.0326 13.289 12.7782 13.289 12.513V7.122C13.289 6.85678 13.1836 6.60243 12.9961 6.41489C12.8086 6.22736 12.5542 6.122 12.289 6.122H3.75ZM8.02 10.391C8.1721 10.391 8.31797 10.3306 8.42553 10.223C8.53308 10.1155 8.5935 9.9696 8.5935 9.8175C8.5935 9.6654 8.53308 9.51953 8.42553 9.41197C8.31797 9.30442 8.1721 9.244 8.02 9.244C7.8679 9.244 7.72203 9.30442 7.61447 9.41197C7.50692 9.51953 7.4465 9.6654 7.4465 9.8175C7.4465 9.9696 7.50692 10.1155 7.61447 10.223C7.72203 10.3306 7.8679 10.391 8.02 10.391V10.391ZM9.593 9.817C9.593 10.2343 9.42722 10.6345 9.13213 10.9296C8.83704 11.2247 8.43682 11.3905 8.0195 11.3905C7.60218 11.3905 7.20196 11.2247 6.90687 10.9296C6.61178 10.6345 6.446 10.2343 6.446 9.817C6.446 9.39968 6.61178 8.99946 6.90687 8.70437C7.20196 8.40928 7.60218 8.2435 8.0195 8.2435C8.43682 8.2435 8.83704 8.40928 9.13213 8.70437C9.42722 8.99946 9.593 9.39968 9.593 9.817V9.817Z" fill="#2D95F0"/>
    </svg>
    <svg xmlns="http://www.w3.org/2000/svg" id="icon-location" viewBox="0 0 24 24" fill="none" stroke="#1F272E" stroke-width="1" stroke-linecap="round" stroke-linejoin="round" class="feather feather-map-pin">
        <path d="M21 10c0 7-9 13-9 13s-9-6-9-13a9 9 0 0 1 18 0z"></path>
        <circle cx="12" cy="10" r="3"></circle>
    </svg>
    <svg width="16" height="16" viewBox="0 0 16 16" id="icon-upload" fill="none" xmlns="http://www.w3.org/2000/svg">
        <path d="M8 14.5C11.5899 14.5 14.5 11.5899 14.5 8C14.5 4.41015 11.5899 1.5 8 1.5C4.41015 1.5 1.5 4.41015 1.5 8C1.5 11.5899
            4.41015 14.5 8 14.5Z" stroke="#505A62" stroke-miterlimit="10" stroke-linecap="round" stroke-linejoin="round"/>
        <path d="M8 4.75V11.1351" stroke="#505A62" stroke-miterlimit="10" stroke-linecap="round" stroke-linejoin="round"/>
        <path d="M5.29102 7.45833L7.99935 4.75L10.7077 7.45833" stroke="#505A62" stroke-miterlimit="10" stroke-linecap="round"
        stroke-linejoin="round"/>
	</svg>
    <svg width="14" height="14" id="icon-attachment" viewBox="0 0 14 14" fill="none" xmlns="http://www.w3.org/2000/svg">
        <path d="M12.6004 6.68841L7.6414 11.5616C6.23259 12.946 3.8658 12.946 2.45699 11.5616C1.04819 10.1772
        1.04819 7.85132 2.45699 6.4669L6.85247 2.14749C7.86681 1.15071 9.44467 1.15071 10.459 2.14749C11.4733
        3.14428 11.4733 4.69483 10.459 5.69162L6.40165 9.62339C5.83813 10.1772 4.93649 10.1772 4.42932 9.62339C3.8658
        9.06962 3.8658 8.18359 4.42932 7.68519L7.81045 4.36257" stroke="#2D95F0" stroke-miterlimit="10" stroke-linecap="round"/>
    </svg>
    <svg xmlns="http://www.w3.org/2000/svg" id="icon-certificate" width="20" height="20" viewBox="0 0 24 24" stroke-width="1" stroke="#1F272E" fill="none" stroke-linecap="round" stroke-linejoin="round">
        <path stroke="none" d="M0 0h24v24H0z" fill="none"/>
        <circle cx="15" cy="15" r="3" />
        <path d="M13 17.5v4.5l2 -1.5l2 1.5v-4.5" />
        <path d="M10 19h-5a2 2 0 0 1 -2 -2v-10c0 -1.1 .9 -2 2 -2h14a2 2 0 0 1 2 2v10a2 2 0 0 1 -1 1.73" />
        <line x1="6" y1="9" x2="18" y2="9" />
        <line x1="6" y1="12" x2="9" y2="12" />
        <line x1="6" y1="15" x2="8" y2="15" />
    </svg>
    <svg xmlns="http://www.w3.org/2000/svg" id="icon-green-check" width="20" height="20" viewBox="0 0 24 24" fill="none" stroke="#289F3B" stroke-width="2" stroke-linecap="round" stroke-linejoin="round" class="feather feather-check">
        <polyline points="20 6 9 17 4 12"></polyline>
    </svg>
    <svg id="icon-lock-gray" width="18" height="18" viewBox="0 0 18 18" fill="none" xmlns="http://www.w3.org/2000/svg">
        <path fill-rule="evenodd" clip-rule="evenodd" d="M9.08646 1.69388H9.02395C8.04029 1.68478 7.09316 2.06637 6.39053 2.75494C5.68729 3.44412 5.28656 4.38438 5.27647 5.36897L5.27644 5.36897V5.37409V5.82423H4.03125C2.92668 5.82423 2.03125 6.71966 2.03125 7.82423V14.2648C2.03125 15.3694 2.92668 16.2648 4.03125 16.2648H14.012C15.1166 16.2648 16.012 15.3694 16.012 14.2648V7.82423C16.012 6.71966 15.1166 5.82423 14.012 5.82423H12.7667V5.44139C12.7758 4.45773 12.3942 3.5106 11.7056 2.80797C11.0164 2.10473 10.0762 1.70401 9.09158 1.69391L9.09158 1.69388H9.08646ZM11.7667 5.82423V5.439V5.43402L11.7667 5.43402C11.7739 4.71458 11.495 4.02176 10.9914 3.5079C10.4884 2.99463 9.80233 2.7019 9.08379 2.69388H9.02155H9.01658V2.69386C8.29714 2.6867 7.60432 2.96558 7.09046 3.46915C6.57719 3.97216 6.28446 4.65822 6.27644 5.37676V5.82423H11.7667ZM4.03125 6.82423C3.47897 6.82423 3.03125 7.27194 3.03125 7.82423V14.2648C3.03125 14.8171 3.47897 15.2648 4.03125 15.2648H14.012C14.5643 15.2648 15.012 14.8171 15.012 14.2648V7.82423C15.012 7.27194 14.5643 6.82423 14.012 6.82423H4.03125ZM9.02178 11.8146C9.4471 11.8146 9.79188 11.4698 9.79188 11.0445C9.79188 10.6191 9.4471 10.2744 9.02178 10.2744C8.59646 10.2744 8.25167 10.6191 8.25167 11.0445C8.25167 11.4698 8.59646 11.8146 9.02178 11.8146ZM10.7919 11.0445C10.7919 12.0221 9.99938 12.8146 9.02178 12.8146C8.04418 12.8146 7.25167 12.0221 7.25167 11.0445C7.25167 10.0669 8.04418 9.27436 9.02178 9.27436C9.99938 9.27436 10.7919 10.0669 10.7919 11.0445Z" fill="#687178"/>
    </svg>
    <svg xmlns="http://www.w3.org/2000/svg" id="icon-badge" width="20" height="18" viewBox="0 0 24 24" fill="none" stroke="#1F272E" stroke-width="1" stroke-linecap="round" stroke-linejoin="round" class="feather feather-award">
        <circle cx="12" cy="8" r="7"></circle>
        <polyline points="8.21 13.89 7 23 12 20 17 23 15.79 13.88"></polyline>
    </svg>
    <svg width="40" height="40" id="icon-quote" viewBox="0 0 40 40" fill="none" xmlns="http://www.w3.org/2000/svg">
        <path d="M27.8837 15.1677V15.6677H28.3837H34.6997V29.4519H22.3877V13.7919C22.3877 7.77141 27.1738 2.82244 33.1317 2.55889V8.06527C30.1784 8.31947 27.8837 10.8044 27.8837 13.7919V15.1677Z" stroke="#1F272E"/>
        <path d="M10.7958 15.1677V15.6677H11.2958H17.6118V29.4517L5.2998 29.4518V13.7919C5.2998 7.77141 10.0859 2.82244 16.0438 2.55889V8.06527C13.0905 8.31947 10.7958 10.8044 10.7958 13.7919V15.1677Z" stroke="#1F272E"/>
    </svg>
	<svg id="icon-disabled-check" width="20" height="20" viewBox="0 0 20 20" fill="none" xmlns="http://www.w3.org/2000/svg">
		<path fill-rule="evenodd" clip-rule="evenodd" d="M20 10C20 15.5228 15.5228 20 10 20C4.47715 20 0 15.5228 0 10C0 4.47715 4.47715 0 10 0C15.5228 0 20 4.47715 20 10ZM14.8734 8.1402C15.264 7.74969 15.264 7.11652 14.8734 6.726C14.4829 6.33547 13.8498 6.33547 13.4592 6.726L12.6259 7.55933L10.9592 9.226L8.333 11.8522L7.37345 10.8927L6.54011 10.0593C6.14959 9.6688 5.51643 9.6688 5.1259 10.0593C4.73538 10.4499 4.73538 11.083 5.1259 11.4735L5.95923 12.3069L7.6259 13.9735C7.81344 14.1611 8.0678 14.2664 8.333 14.2664C8.5982 14.2664 8.8526 14.1611 9.0401 13.9735L12.3734 10.6402L14.0401 8.9735L14.8734 8.1402Z" fill="#C8CFD5"/>
	</svg>
	<svg id="icon-green-check-circled" width="24" height="24" viewBox="0 0 27 27" fill="none" xmlns="http://www.w3.org/2000/svg">
		<path fill-rule="evenodd" clip-rule="evenodd" d="M22 12C22 17.5228 17.5228 22 12 22C6.47715 22 2 17.5228 2 12C2 6.47715 6.47715 2 12 2C17.5228 2 22 6.47715 22 12ZM16.8734 10.1402C17.264 9.74969 17.264 9.11652 16.8734 8.726C16.4829 8.33547 15.8498 8.33547 15.4592 8.726L14.6259 9.55933L12.9592 11.226L10.333 13.8522L9.37345 12.8927L8.54011 12.0593C8.14959 11.6688 7.51643 11.6688 7.1259 12.0593C6.73538 12.4499 6.73538 13.083 7.1259 13.4735L7.95923 14.3069L9.6259 15.9735C9.81344 16.1611 10.0678 16.2664 10.333 16.2664C10.5982 16.2664 10.8526 16.1611 11.0401 15.9735L14.3734 12.6402L16.0401 10.9735L16.8734 10.1402Z" fill="#68D391"/>
	</svg>
    <svg xmlns="http://www.w3.org/2000/svg" id="icon-clock" width="16" height="16" viewBox="0 0 24 24" fill="none" stroke="#1F272E" stroke-width="1" stroke-linecap="round" stroke-linejoin="round" class="feather feather-clock">
        <circle cx="12" cy="12" r="10"></circle>
        <polyline points="12 6 12 12 16 14"></polyline>
    </svg>

    <svg width="20" height="20" viewBox="0 0 20 20" id="icon-success" fill="none" xmlns="http://www.w3.org/2000/svg">
        <path fill-rule="evenodd" clip-rule="evenodd" d="M10 18.75C14.8325 18.75 18.75 14.8325 18.75 10C18.75 5.16751 14.8325 1.25 10 1.25C5.16751 1.25 1.25 5.16751 1.25 10C1.25 14.8325 5.16751 18.75 10 18.75ZM13.966 7.48104C14.1856 7.21471 14.1477 6.8208 13.8813 6.60122C13.615 6.38164 13.2211 6.41954 13.0015 6.68587L8.68984 11.9155L7.01289 9.74823C6.80165 9.47524 6.40911 9.42517 6.13611 9.6364C5.86311 9.84764 5.81304 10.2402 6.02428 10.5132L8.18004 13.2993C8.29633 13.4495 8.47467 13.5388 8.66468 13.5417C8.85468 13.5447 9.0357 13.461 9.15658 13.3144L13.966 7.48104Z" fill="#171717"/>
    </svg>

    <svg width="16" height="16" id="icon-drag" viewBox="0 0 16 16" fill="none" xmlns="http://www.w3.org/2000/svg">
        <path fill-rule="evenodd" clip-rule="evenodd" d="M4 3C4 3.82843 4.67157 4.5 5.5 4.5C6.32843 4.5 7 3.82843 7 3C7 2.17157 6.32843 1.5 5.5 1.5C4.67157 1.5 4 2.17157 4 3ZM5.5 9.5C4.67157 9.5 4 8.82843 4 8C4 7.17157 4.67157 6.5 5.5 6.5C6.32843 6.5 7 7.17157 7 8C7 8.82843 6.32843 9.5 5.5 9.5ZM5.5 14.5C4.67157 14.5 4 13.8284 4 13C4 12.1716 4.67157 11.5 5.5 11.5C6.32843 11.5 7 12.1716 7 13C7 13.8284 6.32843 14.5 5.5 14.5ZM9 3C9 3.82843 9.67157 4.5 10.5 4.5C11.3284 4.5 12 3.82843 12 3C12 2.17157 11.3284 1.5 10.5 1.5C9.67157 1.5 9 2.17157 9 3ZM10.5 9.5C9.67157 9.5 9 8.82843 9 8C9 7.17157 9.67157 6.5 10.5 6.5C11.3284 6.5 12 7.17157 12 8C12 8.82843 11.3284 9.5 10.5 9.5ZM10.5 14.5C9.67157 14.5 9 13.8284 9 13C9 12.1716 9.67157 11.5 10.5 11.5C11.3284 11.5 12 12.1716 12 13C12 13.8284 11.3284 14.5 10.5 14.5Z" fill="#171717"/>
    </svg>

    <svg xmlns="http://www.w3.org/2000/svg" id="icon-clock" width="24" height="24" viewBox="0 0 24 24" fill="none" stroke="currentColor" stroke-width="1" stroke-linecap="round" stroke-linejoin="round" class="feather feather-clock">
        <circle cx="12" cy="12" r="10"></circle>
        <polyline points="12 6 12 12 16 14"></polyline>
    </svg>

</svg>
